<?xml version="1.0" encoding="UTF-8" standalone="no"?>
<!-- Created with Inkscape (http://www.inkscape.org/) -->

<svg
   width="512"
   height="512"
   viewBox="0 0 512 512"
   version="1.1"
   id="svg1"
   inkscape:version="1.4.3 (0d15f75, 2025-12-25)"
   sodipodi:docname="keepassMC-logo.svg"
   xmlns:inkscape="http://www.inkscape.org/namespaces/inkscape"
   xmlns:sodipodi="http://sodipodi.sourceforge.net/DTD/sodipodi-0.dtd"
   xmlns="http://www.w3.org/2000/svg"
   xmlns:svg="http://www.w3.org/2000/svg">
  <sodipodi:namedview
     id="namedview1"
     pagecolor="#505050"
     bordercolor="#ffffff"
     borderopacity="1"
     inkscape:showpageshadow="0"
     inkscape:pageopacity="0"
     inkscape:pagecheckerboard="1"
     inkscape:deskcolor="#505050"
     inkscape:document-units="px"
     inkscape:zoom="1.4142136"
     inkscape:cx="320.67292"
     inkscape:cy="235.113"
     inkscape:window-width="1920"
     inkscape:window-height="1009"
     inkscape:window-x="-8"
     inkscape:window-y="-8"
     inkscape:window-maximized="1"
     inkscape:current-layer="layer3" />
  <defs
     id="defs1">
    <inkscape:path-effect
       effect="perspective-envelope"
       up_left_point="165.16075,141.9545"
       up_right_point="485.70842,-19.21546"
       down_left_point="165.16075,182.4384"
       down_right_point="484.5281,17.205163"
       id="path-effect25"
       is_visible="true"
       lpeversion="1"
       deform_type="envelope_deformation"
       horizontal_mirror="false"
       vertical_mirror="false"
       overflow_perspective="false" />
    <inkscape:path-effect
       effect="perspective-envelope"
       up_left_point="195.76074,164.22764"
       up_right_point="416.46387,164.22764"
       down_left_point="195.76074,201.88384"
       down_right_point="416.46387,201.88384"
       id="path-effect24"
       is_visible="true"
       lpeversion="1"
       deform_type="perspective"
       horizontal_mirror="false"
       vertical_mirror="false"
       overflow_perspective="false" />
    <inkscape:path-effect
       effect="interpolate"
       id="path-effect23"
       is_visible="false"
       lpeversion="1"
       trajectory="m 207.40136,179.29595 22.67578,3.58399"
       equidistant_spacing="true"
       steps="2" />
    <rect
       x="180.26158"
       y="157.34325"
       width="249.2601"
       height="96.316522"
       id="rect22" />
    <inkscape:perspective
       sodipodi:type="inkscape:persp3d"
       inkscape:vp_x="-857.69643 : 916.17313 : 1"
       inkscape:vp_y="0 : 8867.6167 : 0"
       inkscape:vp_z="1488.6121 : 916.17313 : 1"
       inkscape:persp3d-origin="1911.2872 : -2409.9491 : 1"
       id="perspective1" />
    <rect
       x="180.26158"
       y="157.34325"
       width="249.2601"
       height="96.316522"
       id="rect23" />
    <rect
       x="180.26158"
       y="157.34325"
       width="249.2601"
       height="96.316522"
       id="rect24" />
  </defs>
  <g
     inkscape:label="Livello 1"
     inkscape:groupmode="layer"
     id="layer1"
     sodipodi:insensitive="true">
    <g
       sodipodi:type="inkscape:box3d"
       id="g17"
       style="fill:none;stroke:#000000;stroke-width:0.3;stroke-miterlimit:2.1"
       inkscape:perspectiveID="#perspective1"
       inkscape:corner0="2.2283959 : 0.17718479 : 0 : 1"
       inkscape:corner7="1.6677222 : 0.10556574 : 0.90617954 : 1">
      <path
         sodipodi:type="inkscape:box3dside"
         id="path22"
         style="fill:#e9e9ff;fill-rule:evenodd;stroke:none;stroke-width:0.659229;stroke-linejoin:round"
         inkscape:box3dsidetype="11"
         d="M 326.26078,20.275632 511.99999,86.863153 V 264.56538 L 326.26078,173.88035 Z"
         points="511.99999,86.863153 511.99999,264.56538 326.26078,173.88035 326.26078,20.275632 " />
      <path
         sodipodi:type="inkscape:box3dside"
         id="path17"
         style="fill:#353564;fill-rule:evenodd;stroke:none;stroke-width:0.659229;stroke-linejoin:round"
         inkscape:box3dsidetype="6"
         d="M -2.4955543e-6,139.4143 V 336.13437 L 326.26078,173.88035 V 20.275632 Z"
         points="-2.4955543e-06,336.13437 326.26078,173.88035 326.26078,20.275632 -2.4955543e-06,139.4143 " />
      <path
         sodipodi:type="inkscape:box3dside"
         id="path21"
         style="fill:#afafde;fill-rule:evenodd;stroke:none;stroke-width:0.659229;stroke-linejoin:round"
         inkscape:box3dsidetype="13"
         d="M -2.4955543e-6,336.13437 180.26158,491.72439 511.99999,264.56538 326.26078,173.88035 Z"
         points="180.26158,491.72439 511.99999,264.56538 326.26078,173.88035 -2.4955543e-06,336.13437 " />
      <path
         sodipodi:type="inkscape:box3dside"
         id="path18"
         style="fill:#008000;fill-rule:evenodd;stroke:none;stroke-width:0.659229;stroke-linejoin:round"
         inkscape:box3dsidetype="5"
         d="M -2.4955543e-6,139.4143 180.26158,253.65977 511.99999,86.863153 326.26078,20.275632 Z"
         points="180.26158,253.65977 511.99999,86.863153 326.26078,20.275632 -2.4955543e-06,139.4143 " />
      <path
         sodipodi:type="inkscape:box3dside"
         id="path20"
         style="fill:#806600;fill-rule:evenodd;stroke:none;stroke-width:0.659229;stroke-linejoin:round"
         inkscape:box3dsidetype="14"
         d="M 180.26158,253.65977 V 491.72439 L 511.99999,264.56538 V 86.863153 Z"
         points="180.26158,491.72439 511.99999,264.56538 511.99999,86.863153 180.26158,253.65977 " />
      <path
         sodipodi:type="inkscape:box3dside"
         id="path19"
         style="fill:#554400;fill-rule:evenodd;stroke:none;stroke-width:0.659229;stroke-linejoin:round"
         inkscape:box3dsidetype="3"
         d="M -2.4955543e-6,139.4143 180.26158,253.65977 V 491.72439 L -2.4955543e-6,336.13437 Z"
         points="180.26158,253.65977 180.26158,491.72439 -2.4955543e-06,336.13437 -2.4955543e-06,139.4143 " />
    </g>
    <path
       d="m 198.87637,156.44894 -7.26922,3.73821 -16.64739,-5.31148 -4.19318,5.44627 -0.005,10.58529 -5.60042,2.88003 v -31.26587 l 5.61639,-2.82504 -0.008,16.28667 20.51665,-26.60234 6.80774,-3.42428 -18.88192,24.12191 z m 30.38755,-26.68312 -23.30253,11.88827 c -0.005,1.4234 0.28247,2.51763 0.86339,3.2824 0.58086,0.75057 1.37931,1.20317 2.39533,1.35776 0.97822,0.1597 2.13623,0.0615 3.47405,-0.29445 1.3566,-0.36592 2.84591,-0.96523 4.46801,-1.7977 2.15022,-1.10351 4.3115,-2.52126 6.48401,-4.25261 2.19169,-1.75388 3.75157,-3.16932 4.67952,-4.24672 l 0.28299,-0.14495 -0.0249,4.21886 c -1.79475,1.46952 -3.62654,2.86978 -5.49542,4.20064 -1.86873,1.3313 -3.83069,2.52579 -5.88596,3.58312 -5.24188,2.69668 -9.32947,3.76583 -12.26362,3.20453 -2.93523,-0.57901 -4.39702,-2.78726 -4.38451,-6.62182 0.0124,-3.79303 1.42937,-7.51821 4.25188,-11.17254 2.84256,-3.65992 6.56984,-6.654 11.18096,-8.98525 4.27097,-2.15927 7.55433,-2.91472 9.84949,-2.26834 2.31328,0.63414 3.45969,2.61682 3.43982,5.95008 z m -5.16526,-0.32437 c -0.008,-2.02392 -0.70741,-3.2375 -2.09925,-3.64148 -1.37321,-0.41457 -3.47685,0.0958 -6.31073,1.53183 -2.85276,1.44562 -5.13188,3.2133 -6.83706,5.30407 -1.68591,2.0825 -2.6455,4.09384 -2.87898,6.03322 z m 39.70849,-17.29859 -23.30252,11.88827 c -0.01,1.40778 0.27395,2.48836 0.85148,3.24145 0.57752,0.73904 1.3732,1.18216 2.38706,1.32932 0.97611,0.15242 2.13254,0.0488 3.4693,-0.31083 1.35554,-0.36957 2.84433,-0.9707 4.46642,-1.80316 2.15023,-1.10351 4.31249,-2.51785 6.48697,-4.24237 2.19373,-1.74691 3.7556,-3.15553 4.68549,-4.22625 l 0.28299,-0.14495 -0.0385,4.17221 c -1.79652,1.46346 -3.62979,2.85864 -5.49984,4.1854 -1.86994,1.32721 -3.83249,2.51965 -5.88775,3.57698 -5.24188,2.69668 -9.32617,3.7772 -12.25372,3.23866 -2.92857,-0.55611 -4.38092,-2.7319 -4.35621,-6.52444 0.0244,-3.75147 1.45103,-7.44365 4.28063,-11.07356 2.84965,-3.63549 6.58047,-6.61736 11.19161,-8.94861 4.27096,-2.15927 7.5514,-2.92473 9.84075,-2.29837 2.30747,0.61411 3.44562,2.56835 3.41504,5.86474 z m -5.15573,-0.2916 c -0.001,-2.00147 -0.69585,-3.19768 -2.08413,-3.58937 -1.36965,-0.40228 -3.4715,0.11423 -6.30537,1.55026 -2.85276,1.44561 -5.13385,3.20655 -6.84296,5.28382 -1.68983,2.069 -2.65428,4.06357 -2.89357,5.98293 z m 41.06652,-18.688394 c -0.0233,1.823454 -0.4127,3.680846 -1.1679,5.572723 -0.75483,1.879191 -1.80838,3.685771 -3.16064,5.419871 -1.25704,1.63287 -2.73746,3.16112 -4.44128,4.58462 -1.68464,1.40096 -3.46968,2.58665 -5.35527,3.55663 -1.64045,0.84388 -3.12863,1.48207 -4.4646,1.91442 -1.31717,0.42241 -2.66118,0.7174 -4.03207,0.88475 l -0.10033,9.48164 -5.31337,2.74902 0.31221,-31.030998 5.32895,-2.695406 -0.0251,2.370402 c 1.42607,-1.568477 3.02089,-3.08055 4.78444,-4.536321 1.78278,-1.478157 3.67583,-2.723362 5.67903,-3.736117 3.81741,-1.929969 6.77179,-2.402517 8.86254,-1.419775 2.10897,0.956905 3.13989,3.25104 3.09338,6.884541 z m -5.49452,2.901927 c 0.0333,-2.713237 -0.59344,-4.41034 -1.88034,-5.092167 -1.28721,-0.682983 -3.2817,-0.340178 -5.9832,1.029271 -1.53022,0.775701 -3.07252,1.7921 -4.62681,3.049553 -1.55414,1.257917 -3.04362,2.631261 -4.46839,4.120206 l -0.1357,12.824514 c 1.50392,-0.28768 2.79246,-0.61974 3.86571,-0.99592 1.09208,-0.38597 2.32656,-0.93227 3.70348,-1.63882 2.96133,-1.51957 5.28036,-3.41808 6.95743,-5.69436 1.67753,-2.27474 2.53358,-4.808447 2.56782,-7.602277 z m 38.18605,-8.285436 -5.28928,2.720019 0.0369,-2.371668 c -0.47503,0.46797 -1.12122,1.116213 -1.93854,1.944841 -0.79818,0.805863 -1.57623,1.522429 -2.33417,2.149631 -0.89091,0.761739 -1.91296,1.538288 -3.06616,2.329624 -1.15336,0.804816 -2.50309,1.605021 -4.04924,2.400494 -2.84718,1.464836 -5.2514,2.038572 -7.21305,1.7199 -1.96215,-0.320419 -2.92952,-1.518337 -2.90173,-3.592451 0.0228,-1.699437 0.55074,-3.331248 1.58406,-4.894909 1.05258,-1.585961 2.53648,-3.165235 4.45168,-4.737799 1.9343,-1.581428 4.25313,-3.165684 6.95639,-4.753054 2.70336,-1.586986 5.6043,-3.221254 8.70278,-4.902925 l 0.009,-0.577973 c 0.0132,-0.850345 -0.19301,-1.444229 -0.61876,-1.78177 -0.40691,-0.347286 -1.00461,-0.479266 -1.7931,-0.395951 -0.75096,0.07729 -1.65461,0.330832 -2.71093,0.760674 -1.05634,0.429769 -2.16072,0.936677 -3.31313,1.520781 -1.398,0.708582 -2.95851,1.631925 -4.68145,2.770257 -1.72267,1.125281 -3.5036,2.39983 -5.34272,3.823879 l -0.28333,0.143772 0.0524,-3.830244 c 1.04205,-0.726332 2.54738,-1.70675 4.51605,-2.941124 1.96876,-1.23407 3.90752,-2.333507 5.81621,-3.298544 2.22995,-1.127464 4.16497,-1.973773 5.80501,-2.539143 1.65904,-0.588515 3.08835,-0.876593 4.28788,-0.864401 1.18069,0.008 2.075,0.338241 2.68294,0.990818 0.60783,0.652178 0.90016,1.694342 0.8771,3.126792 z m -5.20397,-2.760719 0.0965,-6.198222 c -1.62452,0.894179 -3.54211,1.970842 -5.75277,3.23008 -2.19173,1.249838 -3.93123,2.328784 -5.2185,3.236856 -1.53337,1.086855 -2.77654,2.198212 -3.7295,3.334146 -0.95265,1.122979 -1.43684,2.252299 -1.45268,3.387663 -0.0179,1.282298 0.51569,1.970296 1.60061,2.063641 1.08497,0.07953 2.74969,-0.456789 4.99424,-1.608607 1.86733,-0.958238 3.57811,-2.087134 5.13246,-3.386299 1.55471,-1.311953 2.99792,-2.665063 4.32966,-4.059258 z m 38.13786,-20.448697 c -0.0391,2.007232 -1.26886,4.268372 -3.68886,6.784969 -2.40054,2.508966 -5.66528,4.826413 -9.79467,6.950804 -2.33809,1.202848 -4.48426,2.117327 -6.4386,2.743061 -1.93541,0.602327 -3.55925,1.011174 -4.87149,1.226622 l 0.0709,-4.186567 0.28299,-0.144936 c 1.66397,0.02571 3.51937,-0.224643 5.56626,-0.750865 2.04692,-0.540142 4.01337,-1.294508 5.8995,-2.262569 2.33881,-1.200401 4.17326,-2.402575 5.50343,-3.606175 1.3303,-1.20313 2.00618,-2.369672 2.02756,-3.499975 0.0164,-0.867439 -0.3297,-1.341234 -1.03836,-1.421545 -0.70873,-0.08053 -2.07928,0.241986 -4.11171,0.967379 -0.75276,0.267091 -1.74109,0.63485 -2.96501,1.103222 -1.20509,0.458601 -2.30616,0.850888 -3.30323,1.176864 -2.76562,0.901259 -4.72515,1.154511 -5.87856,0.759891 -1.13451,-0.418226 -1.68953,-1.355118 -1.66488,-2.8101 0.0155,-0.912672 0.29447,-1.906636 0.83709,-2.98168 0.5616,-1.084348 1.39575,-2.221264 2.50251,-3.410622 1.06887,-1.156563 2.419,-2.324062 4.05038,-3.502534 1.65063,-1.200837 3.48702,-2.312285 5.5091,-3.334647 1.8898,-0.955483 3.79542,-1.756089 5.71678,-2.402135 1.94039,-0.669169 3.5486,-1.099197 4.82463,-1.290072 l -0.0765,3.957076 -0.28331,0.143852 c -1.34657,-0.0055 -2.98824,0.248579 -4.92501,0.762231 -1.93671,0.499874 -3.84029,1.223518 -5.71063,2.171404 -1.94588,0.986177 -3.59421,2.082933 -4.94486,3.290622 -1.35029,1.19496 -2.0344,2.307538 -2.05242,3.337391 -0.0159,0.911018 0.37804,1.391097 1.18189,1.440051 0.7849,0.05831 2.06217,-0.219289 3.83178,-0.832862 0.97893,-0.34182 2.07112,-0.741436 3.27655,-1.198864 1.22427,-0.467181 2.24107,-0.841832 3.05042,-1.123912 2.4657,-0.865938 4.35947,-1.161397 5.68127,-0.886531 1.32131,0.287116 1.96628,1.230616 1.93512,2.831152 z m 30.19863,-15.456049 c -0.045,1.986933 -1.27959,4.231424 -3.70337,6.735019 -2.40432,2.49597 -5.67095,4.806916 -9.80033,6.931302 -2.33811,1.202853 -4.48372,2.119258 -6.43695,2.74884 -1.93425,0.606307 -3.55683,1.019463 -4.86771,1.239549 l 0.0831,-4.144578 0.283,-0.144936 c 1.66138,0.01683 3.51472,-0.240625 5.56007,-0.772158 2.0454,-0.545311 4.0111,-1.302264 5.89724,-2.27033 2.33881,-1.200396 4.17402,-2.399914 5.50573,-3.598207 1.33185,-1.197828 2.01017,-2.356015 2.03486,-3.474909 0.019,-0.858683 -0.32523,-1.325842 -1.03259,-1.401638 -0.70742,-0.07602 -2.07685,0.250342 -4.10835,0.978914 -0.7524,0.268286 -1.74033,0.637437 -2.96379,1.107402 -1.20463,0.460193 -2.30521,0.854206 -3.30174,1.182045 -2.7641,0.906428 -4.72143,1.16724 -5.87195,0.78257 -1.1316,-0.408139 -1.68304,-1.33269 -1.65415,-2.773079 0.0181,-0.903517 0.29964,-1.88886 0.84462,-2.955817 0.56394,-1.07625 1.4002,-2.205936 2.50881,-3.388931 1.07068,-1.150327 2.42223,-2.312915 4.05465,-3.4878 1.6517,-1.197122 3.48864,-2.306716 5.51073,-3.329083 1.88979,-0.955478 3.79493,-1.757742 5.71533,-2.407109 1.93947,-0.672353 3.54654,-1.106293 4.82121,-1.301807 l -0.0882,3.917078 -0.28331,0.143851 c -1.34452,0.0015 -2.98447,0.261515 -4.91986,0.779942 -1.93528,0.504784 -3.83815,1.230879 -5.70847,2.17876 -1.9459,0.986182 -3.59499,2.080287 -4.94719,3.282669 -1.35179,1.189786 -2.03815,2.294604 -2.05918,3.314108 -0.0186,0.901864 0.37338,1.375042 1.17589,1.419348 0.78355,0.05366 2.05972,-0.227713 3.82848,-0.844206 0.97847,-0.343407 2.07018,-0.744611 3.27515,-1.203632 1.2238,-0.468773 2.24019,-0.844886 3.04916,-1.128297 2.46453,-0.869914 4.35632,-1.172205 5.67532,-0.907028 1.31846,0.277298 1.95966,1.207797 1.92379,2.792148 z m 45.39671,-17.14589 -5.60042,2.880024 0.66395,-24.654639 -12.17093,22.766128 -3.34023,1.707348 -11.22706,-10.982649 -0.59841,24.880286 -5.2327,2.69093 0.67956,-28.926474 7.65871,-3.852325 10.85284,10.337333 11.30069,-21.4805369 7.80053,-3.9236598 z M 484.84644,7.3822088 c -1.04709,0.8349552 -1.99921,1.6027865 -2.85639,2.3034472 -0.83825,0.691129 -1.94088,1.530723 -3.30786,2.518874 -1.15787,0.83126 -2.41821,1.678158 -3.78102,2.540668 -1.3443,0.865607 -2.82723,1.715591 -4.44881,2.549827 -3.05461,1.571464 -5.82721,2.716921 -8.31801,3.435628 -2.47187,0.695326 -4.61389,0.900764 -6.4262,0.615887 -1.77578,-0.280332 -3.14644,-1.089827 -4.11193,-2.428333 -0.96551,-1.352557 -1.41315,-3.265804 -1.34263,-5.738756 0.0669,-2.345476 0.61788,-4.6913529 1.65325,-7.0366941 1.03572,-2.3440862 2.49827,-4.6199094 4.38773,-6.82718835 1.83208,-2.13893135 4.02469,-4.16971845 6.57773,-6.09265745 2.57229,-1.9313097 5.40929,-3.6762391 8.51076,-5.2356441 2.26937,-1.141026 4.52353,-2.094068 6.76238,-2.859555 2.2576,-0.775572 4.75194,-1.398119 7.48278,-1.868535 l -0.14387,4.439248 -0.42521,0.214967 c -2.2828,-0.12323 -4.55855,0.09514 -6.827,0.655983 -2.26872,0.559899 -4.70765,1.4970347 -7.31657,2.8121134 -2.1363,1.0768403 -4.07175,2.283361 -5.80623,3.619981 -1.71502,1.3149401 -3.25807,2.8000885 -4.62907,4.45572215 -1.33217,1.61200405 -2.38813,3.33572965 -3.16788,5.17109105 -0.76028,1.8138116 -1.16816,3.6750994 -1.22381,5.5833254 -0.0582,1.997283 0.28808,3.512486 1.0388,4.545017 0.76937,1.022093 1.77279,1.660627 3.01026,1.915617 1.29272,0.263285 2.80933,0.17336 4.5499,-0.269546 1.75967,-0.465824 3.62026,-1.202255 5.58189,-2.208886 2.69724,-1.384118 5.23443,-2.990676 7.6118,-4.8189135 2.37765,-1.8272166 4.61459,-3.8849075 6.71099,-6.1725061 l 0.39625,-0.2027521 z"
       id="text24"
       style="font-size:40px;line-height:1.25;text-align:center;text-anchor:middle;white-space:pre"
       transform="translate(15.100827,111.70527)"
       aria-label="KeepassMC"
       inkscape:path-effect="#path-effect25"
       inkscape:original-d="m 219.04199,193.83696 h -5.01953 l -11.50391,-12.94922 -2.89062,3.08594 v 9.86328 h -3.86719 v -29.08203 h 3.86719 v 15.17578 l 14.12109,-15.17578 h 4.6875 l -12.98828,13.67188 z m 20.9375,-10.52734 h -16.07422 q 0,2.01172 0.60547,3.51562 0.60547,1.48438 1.66016,2.44141 1.01562,0.9375 2.40234,1.40625 1.40625,0.46875 3.08594,0.46875 2.22656,0 4.47266,-0.87891 2.26562,-0.89843 3.22265,-1.75781 h 0.19531 v 4.00391 q -1.85546,0.78125 -3.78906,1.30859 -1.93359,0.52735 -4.0625,0.52735 -5.42969,0 -8.47656,-2.92969 -3.04688,-2.94922 -3.04688,-8.35938 0,-5.35156 2.91016,-8.49609 2.92969,-3.14453 7.69531,-3.14453 4.41407,0 6.79688,2.57812 2.40234,2.57813 2.40234,7.32422 z m -3.57422,-2.8125 q -0.0195,-2.89063 -1.46484,-4.47266 -1.42578,-1.58203 -4.35547,-1.58203 -2.94922,0 -4.70703,1.73828 -1.73828,1.73828 -1.97266,4.31641 z m 27.40235,2.8125 H 247.7334 q 0,2.01172 0.60547,3.51562 0.60547,1.48438 1.66015,2.44141 1.01563,0.9375 2.40235,1.40625 1.40625,0.46875 3.08593,0.46875 2.22657,0 4.47266,-0.87891 2.26563,-0.89843 3.22266,-1.75781 h 0.19531 v 4.00391 q -1.85547,0.78125 -3.78906,1.30859 -1.9336,0.52735 -4.0625,0.52735 -5.42969,0 -8.47657,-2.92969 -3.04687,-2.94922 -3.04687,-8.35938 0,-5.35156 2.91016,-8.49609 2.92968,-3.14453 7.69531,-3.14453 4.41406,0 6.79687,2.57812 2.40235,2.57813 2.40235,7.32422 z m -3.57422,-2.8125 q -0.0195,-2.89063 -1.46485,-4.47266 -1.42578,-1.58203 -4.35546,-1.58203 -2.94922,0 -4.70704,1.73828 -1.73828,1.73828 -1.97265,4.31641 z m 28.33984,2.16797 q 0,2.65625 -0.76172,4.86328 -0.76172,2.1875 -2.14843,3.71094 -1.28907,1.44531 -3.04688,2.24609 -1.73828,0.78125 -3.69141,0.78125 -1.69921,0 -3.08593,-0.37109 -1.36719,-0.3711 -2.79297,-1.15235 v 9.14063 h -3.67188 v -29.86328 h 3.67188 v 2.28515 q 1.46484,-1.23047 3.28125,-2.05078 1.83594,-0.83984 3.90625,-0.83984 3.94531,0 6.13281,2.98828 2.20703,2.96875 2.20703,8.26172 z m -3.78906,0.0977 q 0,-3.94531 -1.34766,-5.89843 -1.34765,-1.95313 -4.14062,-1.95313 -1.58203,0 -3.1836,0.6836 -1.60156,0.68359 -3.0664,1.79687 v 12.36328 q 1.5625,0.70313 2.67578,0.95703 1.13281,0.25391 2.55859,0.25391 3.06641,0 4.78516,-2.07031 1.71875,-2.07032 1.71875,-6.13282 z m 26.46484,11.07422 h -3.65234 v -2.32422 q -0.48828,0.33204 -1.32813,0.9375 -0.82031,0.58594 -1.60156,0.9375 -0.91797,0.44922 -2.10937,0.74219 -1.19141,0.3125 -2.79297,0.3125 -2.94922,0 -5,-1.95312 -2.05078,-1.95313 -2.05078,-4.98047 0,-2.48047 1.05468,-4.00391 1.07422,-1.54297 3.04688,-2.42187 1.99219,-0.87891 4.78516,-1.19141 2.79296,-0.3125 5.99609,-0.46875 v -0.56641 q 0,-1.25 -0.44922,-2.07031 -0.42969,-0.82031 -1.25,-1.28906 -0.78125,-0.44922 -1.875,-0.60547 -1.09375,-0.15625 -2.28516,-0.15625 -1.44531,0 -3.22265,0.39063 -1.77735,0.37109 -3.67188,1.09375 h -0.19531 v -3.73047 q 1.07422,-0.29297 3.10547,-0.64453 2.03125,-0.35157 4.00391,-0.35157 2.30468,0 4.0039,0.39063 1.71875,0.37109 2.96875,1.28906 1.23047,0.89844 1.875,2.32422 0.64453,1.42578 0.64453,3.53516 z m -3.65234,-5.37109 v -6.07422 q -1.67969,0.0977 -3.96484,0.29297 -2.26563,0.19531 -3.59375,0.56641 -1.58204,0.44921 -2.5586,1.40625 -0.97656,0.9375 -0.97656,2.59765 0,1.875 1.13281,2.83203 1.13281,0.9375 3.45703,0.9375 1.9336,0 3.53516,-0.74218 1.60156,-0.76172 2.96875,-1.81641 z m 26.30859,-0.91797 q 0,2.98828 -2.48047,4.90234 -2.46093,1.91407 -6.73828,1.91407 -2.42187,0 -4.45312,-0.56641 -2.01172,-0.58594 -3.37891,-1.26953 v -4.12109 h 0.19531 q 1.73829,1.30859 3.86719,2.08984 2.12891,0.76172 4.08203,0.76172 2.42188,0 3.78907,-0.78125 1.36718,-0.78125 1.36718,-2.46094 0,-1.28906 -0.74218,-1.95312 -0.74219,-0.66407 -2.85157,-1.13282 -0.78125,-0.17578 -2.05078,-0.41015 -1.25,-0.23438 -2.28515,-0.50782 -2.8711,-0.76171 -4.08204,-2.22656 -1.1914,-1.48437 -1.1914,-3.63281 0,-1.34766 0.54687,-2.53906 0.56641,-1.19141 1.69922,-2.12891 1.09375,-0.91797 2.77344,-1.44531 1.69922,-0.54688 3.78906,-0.54688 1.95313,0 3.94531,0.48828 2.01172,0.46875 3.33985,1.15235 v 3.92578 h -0.19531 q -1.40625,-1.03516 -3.41797,-1.73828 -2.01172,-0.72266 -3.94532,-0.72266 -2.01171,0 -3.39843,0.78125 -1.38672,0.76172 -1.38672,2.28516 0,1.34765 0.83984,2.03125 0.82031,0.68359 2.65625,1.11328 1.01563,0.23437 2.26563,0.46875 1.26953,0.23437 2.10937,0.42969 2.5586,0.58593 3.94531,2.01172 1.38672,1.44531 1.38672,3.82812 z m 20.83985,0 q 0,2.98828 -2.48047,4.90234 -2.46094,1.91407 -6.73828,1.91407 -2.42188,0 -4.45313,-0.56641 -2.01172,-0.58594 -3.3789,-1.26953 v -4.12109 h 0.19531 q 1.73828,1.30859 3.86719,2.08984 2.1289,0.76172 4.08203,0.76172 2.42187,0 3.78906,-0.78125 1.36719,-0.78125 1.36719,-2.46094 0,-1.28906 -0.74219,-1.95312 -0.74219,-0.66407 -2.85156,-1.13282 -0.78125,-0.17578 -2.05078,-0.41015 -1.25,-0.23438 -2.28516,-0.50782 -2.87109,-0.76171 -4.08203,-2.22656 -1.19141,-1.48437 -1.19141,-3.63281 0,-1.34766 0.54688,-2.53906 0.5664,-1.19141 1.69922,-2.12891 1.09375,-0.91797 2.77343,-1.44531 1.69922,-0.54688 3.78907,-0.54688 1.95312,0 3.94531,0.48828 2.01172,0.46875 3.33984,1.15235 v 3.92578 h -0.19531 q -1.40625,-1.03516 -3.41797,-1.73828 -2.01172,-0.72266 -3.94531,-0.72266 -2.01172,0 -3.39844,0.78125 -1.38672,0.76172 -1.38672,2.28516 0,1.34765 0.83985,2.03125 0.82031,0.68359 2.65625,1.11328 1.01562,0.23437 2.26562,0.46875 1.26953,0.23437 2.10938,0.42969 2.55859,0.58593 3.94531,2.01172 1.38672,1.44531 1.38672,3.82812 z m 31.44531,6.28906 h -3.86719 v -25.05859 l -8.08594,17.05078 h -2.30468 l -8.02735,-17.05078 v 25.05859 h -3.61328 v -29.08203 h 5.27344 l 7.75391,16.19141 7.5,-16.19141 h 5.37109 z m 30.27344,-2.10937 q -1.07422,0.46875 -1.95313,0.8789 -0.85937,0.41016 -2.26562,0.85938 -1.19141,0.37109 -2.59766,0.625 -1.38672,0.27344 -3.06641,0.27344 -3.16406,0 -5.76171,-0.87891 -2.57813,-0.89844 -4.49219,-2.79297 -1.875,-1.85547 -2.92969,-4.70703 -1.05469,-2.87109 -1.05469,-6.66016 0,-3.59375 1.01563,-6.42578 1.01562,-2.83203 2.92969,-4.78515 1.85546,-1.89453 4.47265,-2.89063 2.63672,-0.99609 5.83985,-0.99609 2.34375,0 4.66796,0.5664 2.34375,0.56641 5.19532,1.99219 v 4.58985 h -0.29297 q -2.40235,-2.01172 -4.76563,-2.92969 -2.36328,-0.91797 -5.05859,-0.91797 -2.20703,0 -3.98438,0.72266 -1.75781,0.70312 -3.14453,2.20703 -1.34765,1.46484 -2.10937,3.71093 -0.74219,2.22657 -0.74219,5.15625 0,3.06641 0.82031,5.27344 0.83985,2.20703 2.14844,3.59375 1.36719,1.44531 3.18359,2.14844 1.83594,0.68359 3.86719,0.68359 2.79297,0 5.23438,-0.95703 2.4414,-0.95703 4.57031,-2.87109 h 0.27344 z" />
  </g>
  <g
     inkscape:groupmode="layer"
     id="layer2"
     inkscape:label="Livello 2"
     style="display:inline"
     sodipodi:insensitive="true">
    <text
       xml:space="preserve"
       id="text22"
       style="font-size:40px;line-height:1.25;font-family:sans-serif;text-align:center;white-space:pre;shape-inside:url(#rect22);display:none"
       transform="translate(8.726475,113.68551)"><tspan
         x="191.75684"
         y="193.83696"
         id="tspan1">KeepassMC</tspan></text>
    <path
       style="fill:none;stroke:#000000;stroke-width:1px;stroke-linecap:butt;stroke-linejoin:miter;stroke-opacity:1"
       d="M 180.26158,253.65977 V 491.72439"
       id="path25" />
    <path
       style="fill:none;stroke:#000000;stroke-width:1px;stroke-linecap:butt;stroke-linejoin:miter;stroke-opacity:1"
       d="M 180.26158,253.65977 511.99999,86.863153"
       id="path23" />
    <path
       style="fill:none;stroke:#000000;stroke-width:1px;stroke-linecap:butt;stroke-linejoin:miter;stroke-opacity:1"
       d="M -2.4955543e-6,139.4143 180.26199,254.22666"
       id="path26" />
    <path
       style="display:inline;fill:none;stroke:#000000;stroke-width:1px;stroke-linecap:butt;stroke-linejoin:miter;stroke-opacity:1"
       d="M -2.4955543e-6,336.13437 180.26158,491.72439"
       id="path29" />
  </g>
  <g
     inkscape:groupmode="layer"
     id="layer3"
     inkscape:label="Livello 3">
    <path
       d="m 372.73437,314.67187 34.67969,-20.02148 -30.5957,-21.33594 c -4.94184,14.96865 -4.08397,28.64453 -4.08399,28.64453 z"
       style="display:inline;fill:#504416;stroke-width:1px"
       id="path38" />
    <path
       d="m 437.45508,315.59961 -30.04102,-20.94922 -34.67969,20.02148 v 45.25586 z"
       style="display:inline;fill:#504416;stroke-width:1px"
       id="path37" />
    <path
       d="m 437.5,264.56445 -30.08594,30.08594 30.04102,20.94922 0.0449,-0.0293 z"
       style="display:inline;fill:#28220b;stroke-width:1px"
       id="path36" />
    <path
       d="m 404.125,241.29102 c -1.09867,0.41354 -2.19337,0.81945 -3.36523,1.35351 -13.38855,7.56388 -20.24311,19.46791 -23.94141,30.66992 l 30.5957,21.33594 L 437.5,264.56445 Z"
       style="display:inline;fill:#28220b;stroke-width:1px"
       id="path35" />
    <path
       d="m 416.89258,238.86133 c -3.58709,-0.17174 -7.83428,0.57278 -12.76758,2.42969 l 33.375,23.27343 c 0,0 -1.60166,-24.79319 -20.60742,-25.70312 z"
       style="display:inline;fill:#24221c;stroke-width:1px"
       id="path32" />
  </g>
  <path
     style="display:none;fill:none;stroke:#000000;stroke-width:1px;stroke-linecap:butt;stroke-linejoin:miter;stroke-opacity:1"
     d="m 437.5,264.56538 -64.76653,37.39297"
     id="path28" />
</svg>
